<?xml version="1.0"?><svg width="533.3333333333333" height="533.3333333333333" xmlns="http://www.w3.org/2000/svg">
 <title>red scissors</title>

 <g>
  <title>Layer 1</title>
  <g id="g834">
   <path fill="#dadadb" fill-rule="evenodd" stroke="#000000" stroke-width="10.000006" stroke-linejoin="round" id="path693" d="m311.808716,8.107728c-0.826416,0.190128 -92.846832,277.162414 -92.846832,277.162414c0,0 50.515839,15.350616 49.689423,15.540741c-0.826385,0.190125 78.761047,-217.367027 43.15741,-292.703155z"/>
   <path fill="#ff0000" fill-rule="evenodd" stroke="#000000" stroke-width="10" stroke-linejoin="bevel" id="path596" d="m267.366394,300.285004c0,0 -45.401901,119.053192 -36.999191,136.733704c-0.363098,10.785797 -33.796509,59.453705 -55.409698,59.925903c-18.636307,1.171692 -79.934204,-13.48941 -70.106407,-73.750122c11.6856,-61.997375 61.955605,-40.507996 81.830803,-42.837891c19.8759,-2.330597 53.658203,-79.181 30.213501,-95.568787c26.164703,6.879974 49.811203,17.274902 50.470993,15.497192zm-89.355591,88.177704c-67.787704,-17.879395 -80.966949,88.460205 -20.587311,94.692993c67.695007,2.879303 67.125702,-87.126312 20.587311,-94.692993z"/>
   <path fill="#dadadb" fill-rule="evenodd" stroke="#000000" stroke-width="9.999993" stroke-linejoin="bevel" id="path674" d="m166.478043,6.396652c0.83493,0.148294 106.679276,272.138382 106.679276,272.138382c0,0 -49.67926,17.873718 -48.844315,18.022003c0.83493,0.148285 -89.60173,-213.127655 -57.834961,-290.160386z"/>
   <path fill="none" fill-rule="evenodd" stroke="#000000" stroke-width="6.25" id="path710" d="m242.995499,257.852112c-15.262589,0.847992 -17.80629,24.589996 0,25.437988c16.958511,-0.847992 16.958694,-25.437988 0,-25.437988z"/>
   <path fill="none" fill-rule="evenodd" stroke="#000000" stroke-width="6.25" id="path711" d="m231.124603,266.332092c1.695892,0 16.958496,15.262024 16.958496,15.262024"/>
   <path fill="none" fill-rule="evenodd" stroke="#000000" stroke-width="6.25" id="path712" d="m237.908005,260.396118c0.847885,0 16.110489,15.263 16.110489,15.263"/>
   <path fill="#e6ffff" fill-opacity="0.75" fill-rule="evenodd" stroke-width="1.0000000pt" id="path717" d="m311.599121,21.2822c0.847992,0 -61.050003,186.542797 -61.050003,186.542797c0,0 6.62825,12.79689 9.171249,11.948883c2.544006,-0.848007 58.66275,-189.16448 51.878754,-198.49168z"/>
   <path fill-opacity="0.318519" fill-rule="evenodd" stroke-width="1.0000000pt" id="path718" d="m233.108994,265.781006l3.531006,-4.947998l16.241989,15.524994l-3.950989,4.100006l-15.822006,-14.677002z"/>
   <path fill="#ff0000" fill-rule="evenodd" stroke="#000000" stroke-width="10" stroke-linejoin="bevel" id="path590" d="m319.250702,377.535706c66.802094,-21.268707 85.316895,84.272888 25.327393,93.536804c-67.464386,6.282776 -71.425903,-83.637512 -25.327393,-93.536804zm-93.680496,-83.568695c0,0 51.336594,116.617279 43.834305,134.698303c0.905579,10.753784 36.746094,57.677399 58.355804,57.061188c18.67157,0.232208 79.153992,-17.495514 66.305573,-77.185303c-14.791077,-61.330688 -63.915894,-37.338409 -83.883179,-38.665009c-19.968109,-1.327301 -57.575607,-76.380005 -34.985413,-93.927094c-25.785294,8.188202 -48.878693,19.760101 -49.62709,18.017914z"/>
  </g>
 </g>
</svg>